<svg width="326" height="85" viewBox="0 0 326 85" fill="none" xmlns="http://www.w3.org/2000/svg">
<rect width="303" height="85" rx="9" fill="white"/>
<path d="M123.773 34.9091V45H118.932V27.5455H123.545V30.625H123.75C124.136 29.6098 124.784 28.8068 125.693 28.2159C126.602 27.6174 127.705 27.3182 129 27.3182C130.212 27.3182 131.269 27.5833 132.17 28.1136C133.072 28.6439 133.773 29.4015 134.273 30.3864C134.773 31.3636 135.023 32.5303 135.023 33.8864V45H130.182V34.75C130.189 33.6818 129.917 32.8485 129.364 32.25C128.811 31.6439 128.049 31.3409 127.08 31.3409C126.428 31.3409 125.852 31.4811 125.352 31.7614C124.86 32.0417 124.473 32.4508 124.193 32.9886C123.92 33.5189 123.78 34.1591 123.773 34.9091ZM143.815 45.3295C142.702 45.3295 141.709 45.1364 140.838 44.75C139.967 44.3561 139.277 43.7765 138.77 43.0114C138.27 42.2386 138.02 41.2765 138.02 40.125C138.02 39.1553 138.198 38.3409 138.554 37.6818C138.91 37.0227 139.395 36.4924 140.009 36.0909C140.622 35.6894 141.319 35.3864 142.099 35.1818C142.887 34.9773 143.713 34.8333 144.577 34.75C145.592 34.6439 146.41 34.5455 147.031 34.4545C147.652 34.3561 148.103 34.2121 148.384 34.0227C148.664 33.8333 148.804 33.553 148.804 33.1818V33.1136C148.804 32.3939 148.577 31.8371 148.122 31.4432C147.675 31.0492 147.039 30.8523 146.213 30.8523C145.342 30.8523 144.649 31.0455 144.134 31.4318C143.618 31.8106 143.277 32.2879 143.111 32.8636L138.634 32.5C138.861 31.4394 139.308 30.5227 139.974 29.75C140.641 28.9697 141.501 28.3712 142.554 27.9545C143.615 27.5303 144.842 27.3182 146.236 27.3182C147.205 27.3182 148.134 27.4318 149.02 27.6591C149.914 27.8864 150.705 28.2386 151.395 28.7159C152.092 29.1932 152.641 29.8068 153.043 30.5568C153.444 31.2992 153.645 32.1894 153.645 33.2273V45H149.054V42.5795H148.918C148.637 43.125 148.262 43.6061 147.793 44.0227C147.323 44.4318 146.759 44.7538 146.099 44.9886C145.44 45.2159 144.679 45.3295 143.815 45.3295ZM145.202 41.9886C145.914 41.9886 146.543 41.8485 147.088 41.5682C147.634 41.2803 148.062 40.8939 148.372 40.4091C148.683 39.9242 148.838 39.375 148.838 38.7614V36.9091C148.687 37.0076 148.478 37.0985 148.213 37.1818C147.955 37.2576 147.664 37.3295 147.338 37.3977C147.012 37.4583 146.687 37.5152 146.361 37.5682C146.035 37.6136 145.74 37.6553 145.474 37.6932C144.906 37.7765 144.41 37.9091 143.986 38.0909C143.562 38.2727 143.232 38.5189 142.997 38.8295C142.762 39.1326 142.645 39.5114 142.645 39.9659C142.645 40.625 142.884 41.1288 143.361 41.4773C143.846 41.8182 144.459 41.9886 145.202 41.9886ZM157.401 45V27.5455H162.094V30.5909H162.276C162.594 29.5076 163.128 28.6894 163.878 28.1364C164.628 27.5758 165.491 27.2955 166.469 27.2955C166.711 27.2955 166.973 27.3106 167.253 27.3409C167.533 27.3712 167.779 27.4129 167.991 27.4659V31.7614C167.764 31.6932 167.45 31.6326 167.048 31.5795C166.647 31.5265 166.279 31.5 165.946 31.5C165.234 31.5 164.598 31.6553 164.037 31.9659C163.484 32.2689 163.045 32.6932 162.719 33.2386C162.401 33.7841 162.241 34.4129 162.241 35.125V45H157.401ZM174.972 45.3295C173.858 45.3295 172.866 45.1364 171.994 44.75C171.123 44.3561 170.434 43.7765 169.926 43.0114C169.426 42.2386 169.176 41.2765 169.176 40.125C169.176 39.1553 169.354 38.3409 169.71 37.6818C170.066 37.0227 170.551 36.4924 171.165 36.0909C171.778 35.6894 172.475 35.3864 173.256 35.1818C174.044 34.9773 174.869 34.8333 175.733 34.75C176.748 34.6439 177.566 34.5455 178.188 34.4545C178.809 34.3561 179.259 34.2121 179.54 34.0227C179.82 33.8333 179.96 33.553 179.96 33.1818V33.1136C179.96 32.3939 179.733 31.8371 179.278 31.4432C178.831 31.0492 178.195 30.8523 177.369 30.8523C176.498 30.8523 175.805 31.0455 175.29 31.4318C174.775 31.8106 174.434 32.2879 174.267 32.8636L169.79 32.5C170.017 31.4394 170.464 30.5227 171.131 29.75C171.797 28.9697 172.657 28.3712 173.71 27.9545C174.771 27.5303 175.998 27.3182 177.392 27.3182C178.362 27.3182 179.29 27.4318 180.176 27.6591C181.07 27.8864 181.862 28.2386 182.551 28.7159C183.248 29.1932 183.797 29.8068 184.199 30.5568C184.6 31.2992 184.801 32.1894 184.801 33.2273V45H180.21V42.5795H180.074C179.794 43.125 179.419 43.6061 178.949 44.0227C178.479 44.4318 177.915 44.7538 177.256 44.9886C176.597 45.2159 175.835 45.3295 174.972 45.3295ZM176.358 41.9886C177.07 41.9886 177.699 41.8485 178.244 41.5682C178.79 41.2803 179.218 40.8939 179.528 40.4091C179.839 39.9242 179.994 39.375 179.994 38.7614V36.9091C179.843 37.0076 179.634 37.0985 179.369 37.1818C179.112 37.2576 178.82 37.3295 178.494 37.3977C178.169 37.4583 177.843 37.5152 177.517 37.5682C177.191 37.6136 176.896 37.6553 176.631 37.6932C176.063 37.7765 175.566 37.9091 175.142 38.0909C174.718 38.2727 174.388 38.5189 174.153 38.8295C173.919 39.1326 173.801 39.5114 173.801 39.9659C173.801 40.625 174.04 41.1288 174.517 41.4773C175.002 41.8182 175.616 41.9886 176.358 41.9886ZM196.054 45V21.7273H200.974V40.9432H210.952V45H196.054ZM222.074 45.3409C220.278 45.3409 218.733 44.9773 217.438 44.25C216.15 43.5152 215.157 42.4773 214.46 41.1364C213.763 39.7879 213.415 38.1932 213.415 36.3523C213.415 34.5568 213.763 32.9811 214.46 31.625C215.157 30.2689 216.138 29.2121 217.403 28.4545C218.676 27.697 220.169 27.3182 221.881 27.3182C223.032 27.3182 224.104 27.5038 225.097 27.875C226.097 28.2386 226.968 28.7879 227.71 29.5227C228.46 30.2576 229.044 31.1818 229.46 32.2955C229.877 33.4015 230.085 34.697 230.085 36.1818V37.5114H215.347V34.5114H225.528C225.528 33.8144 225.377 33.197 225.074 32.6591C224.771 32.1212 224.35 31.7008 223.812 31.3977C223.282 31.0871 222.665 30.9318 221.96 30.9318C221.225 30.9318 220.574 31.1023 220.006 31.4432C219.445 31.7765 219.006 32.2273 218.688 32.7955C218.369 33.3561 218.206 33.9811 218.199 34.6705V37.5227C218.199 38.3864 218.358 39.1326 218.676 39.7614C219.002 40.3902 219.46 40.875 220.051 41.2159C220.642 41.5568 221.343 41.7273 222.153 41.7273C222.691 41.7273 223.184 41.6515 223.631 41.5C224.078 41.3485 224.46 41.1212 224.778 40.8182C225.097 40.5152 225.339 40.1439 225.506 39.7045L229.983 40C229.756 41.0758 229.29 42.0152 228.585 42.8182C227.888 43.6136 226.987 44.2348 225.881 44.6818C224.782 45.1212 223.513 45.3409 222.074 45.3409ZM238.222 45.3295C237.108 45.3295 236.116 45.1364 235.244 44.75C234.373 44.3561 233.684 43.7765 233.176 43.0114C232.676 42.2386 232.426 41.2765 232.426 40.125C232.426 39.1553 232.604 38.3409 232.96 37.6818C233.316 37.0227 233.801 36.4924 234.415 36.0909C235.028 35.6894 235.725 35.3864 236.506 35.1818C237.294 34.9773 238.119 34.8333 238.983 34.75C239.998 34.6439 240.816 34.5455 241.438 34.4545C242.059 34.3561 242.509 34.2121 242.79 34.0227C243.07 33.8333 243.21 33.553 243.21 33.1818V33.1136C243.21 32.3939 242.983 31.8371 242.528 31.4432C242.081 31.0492 241.445 30.8523 240.619 30.8523C239.748 30.8523 239.055 31.0455 238.54 31.4318C238.025 31.8106 237.684 32.2879 237.517 32.8636L233.04 32.5C233.267 31.4394 233.714 30.5227 234.381 29.75C235.047 28.9697 235.907 28.3712 236.96 27.9545C238.021 27.5303 239.248 27.3182 240.642 27.3182C241.612 27.3182 242.54 27.4318 243.426 27.6591C244.32 27.8864 245.112 28.2386 245.801 28.7159C246.498 29.1932 247.047 29.8068 247.449 30.5568C247.85 31.2992 248.051 32.1894 248.051 33.2273V45H243.46V42.5795H243.324C243.044 43.125 242.669 43.6061 242.199 44.0227C241.729 44.4318 241.165 44.7538 240.506 44.9886C239.847 45.2159 239.085 45.3295 238.222 45.3295ZM239.608 41.9886C240.32 41.9886 240.949 41.8485 241.494 41.5682C242.04 41.2803 242.468 40.8939 242.778 40.4091C243.089 39.9242 243.244 39.375 243.244 38.7614V36.9091C243.093 37.0076 242.884 37.0985 242.619 37.1818C242.362 37.2576 242.07 37.3295 241.744 37.3977C241.419 37.4583 241.093 37.5152 240.767 37.5682C240.441 37.6136 240.146 37.6553 239.881 37.6932C239.313 37.7765 238.816 37.9091 238.392 38.0909C237.968 38.2727 237.638 38.5189 237.403 38.8295C237.169 39.1326 237.051 39.5114 237.051 39.9659C237.051 40.625 237.29 41.1288 237.767 41.4773C238.252 41.8182 238.866 41.9886 239.608 41.9886ZM251.807 45V27.5455H256.5V30.5909H256.682C257 29.5076 257.534 28.6894 258.284 28.1364C259.034 27.5758 259.898 27.2955 260.875 27.2955C261.117 27.2955 261.379 27.3106 261.659 27.3409C261.939 27.3712 262.186 27.4129 262.398 27.4659V31.7614C262.17 31.6932 261.856 31.6326 261.455 31.5795C261.053 31.5265 260.686 31.5 260.352 31.5C259.64 31.5 259.004 31.6553 258.443 31.9659C257.89 32.2689 257.451 32.6932 257.125 33.2386C256.807 33.7841 256.648 34.4129 256.648 35.125V45H251.807ZM269.741 34.9091V45H264.901V27.5455H269.514V30.625H269.719C270.105 29.6098 270.753 28.8068 271.662 28.2159C272.571 27.6174 273.673 27.3182 274.969 27.3182C276.181 27.3182 277.238 27.5833 278.139 28.1136C279.041 28.6439 279.741 29.4015 280.241 30.3864C280.741 31.3636 280.991 32.5303 280.991 33.8864V45H276.151V34.75C276.158 33.6818 275.885 32.8485 275.332 32.25C274.779 31.6439 274.018 31.3409 273.048 31.3409C272.397 31.3409 271.821 31.4811 271.321 31.7614C270.829 32.0417 270.442 32.4508 270.162 32.9886C269.889 33.5189 269.749 34.1591 269.741 34.9091Z" fill="black"/>
<path d="M79.0227 21.7273H85.0909L91.5 37.3636H91.7727L98.1818 21.7273H104.25V45H99.4773V29.8523H99.2841L93.2614 44.8864H90.0114L83.9886 29.7955H83.7955V45H79.0227V21.7273Z" fill="black"/>
<path d="M87.0352 61.3008C87.0039 60.9857 86.8698 60.7409 86.6328 60.5664C86.3958 60.3919 86.0742 60.3047 85.668 60.3047C85.3919 60.3047 85.1589 60.3437 84.9688 60.4219C84.7786 60.4974 84.6328 60.6029 84.5313 60.7383C84.4323 60.8737 84.3828 61.0273 84.3828 61.1992C84.3776 61.3424 84.4076 61.4674 84.4727 61.5742C84.5404 61.681 84.6328 61.7734 84.75 61.8516C84.8672 61.9271 85.0026 61.9935 85.1562 62.0508C85.3099 62.1055 85.474 62.1523 85.6484 62.1914L86.3672 62.3633C86.7161 62.4414 87.0365 62.5456 87.3281 62.6758C87.6198 62.806 87.8724 62.9661 88.0859 63.1562C88.2995 63.3464 88.4648 63.5703 88.582 63.8281C88.7018 64.0859 88.763 64.3815 88.7656 64.7148C88.763 65.2044 88.638 65.6289 88.3906 65.9883C88.1458 66.3451 87.7917 66.6224 87.3281 66.8203C86.8672 67.0156 86.3112 67.1133 85.6602 67.1133C85.0143 67.1133 84.4518 67.0143 83.9727 66.8164C83.4961 66.6185 83.1237 66.3255 82.8555 65.9375C82.5898 65.5469 82.4505 65.0638 82.4375 64.4883H84.0742C84.0924 64.7565 84.1693 64.9805 84.3047 65.1602C84.4427 65.3372 84.6263 65.4714 84.8555 65.5625C85.0872 65.651 85.349 65.6953 85.6406 65.6953C85.9271 65.6953 86.1758 65.6536 86.3867 65.5703C86.6003 65.487 86.7656 65.3711 86.8828 65.2227C87 65.0742 87.0586 64.9036 87.0586 64.7109C87.0586 64.5312 87.0052 64.3802 86.8984 64.2578C86.7943 64.1354 86.6406 64.0312 86.4375 63.9453C86.237 63.8594 85.9909 63.7812 85.6992 63.7109L84.8281 63.4922C84.1536 63.3281 83.6211 63.0716 83.2305 62.7227C82.8398 62.3737 82.6458 61.9036 82.6484 61.3125C82.6458 60.8281 82.7747 60.4049 83.0352 60.043C83.2982 59.681 83.6589 59.3984 84.1172 59.1953C84.5755 58.9922 85.0964 58.8906 85.6797 58.8906C86.2734 58.8906 86.7917 58.9922 87.2344 59.1953C87.6797 59.3984 88.026 59.681 88.2734 60.043C88.5208 60.4049 88.6484 60.8242 88.6562 61.3008H87.0352ZM89.8721 69.25V61H91.5127V62.0078H91.5869C91.6598 61.8464 91.7653 61.6823 91.9033 61.5156C92.0439 61.3464 92.2262 61.2057 92.4502 61.0938C92.6768 60.9792 92.958 60.9219 93.2939 60.9219C93.7314 60.9219 94.1351 61.0365 94.5049 61.2656C94.8747 61.4922 95.1702 61.8346 95.3916 62.293C95.613 62.7487 95.7236 63.3203 95.7236 64.0078C95.7236 64.6771 95.6156 65.2422 95.3994 65.7031C95.1859 66.1615 94.8942 66.5091 94.5244 66.7461C94.1572 66.9805 93.7458 67.0977 93.29 67.0977C92.9671 67.0977 92.6924 67.0443 92.4658 66.9375C92.2419 66.8307 92.0583 66.6966 91.915 66.5352C91.7718 66.3711 91.6624 66.2057 91.5869 66.0391H91.5361V69.25H89.8721ZM91.501 64C91.501 64.3568 91.5505 64.668 91.6494 64.9336C91.7484 65.1992 91.8916 65.4062 92.0791 65.5547C92.2666 65.7005 92.4945 65.7734 92.7627 65.7734C93.0335 65.7734 93.2627 65.6992 93.4502 65.5508C93.6377 65.3997 93.7796 65.1914 93.876 64.9258C93.9749 64.6576 94.0244 64.349 94.0244 64C94.0244 63.6536 93.9762 63.349 93.8799 63.0859C93.7835 62.8229 93.6416 62.6172 93.4541 62.4687C93.2666 62.3203 93.0361 62.2461 92.7627 62.2461C92.4919 62.2461 92.2627 62.3177 92.0752 62.4609C91.8903 62.6042 91.7484 62.8073 91.6494 63.0703C91.5505 63.3333 91.501 63.6432 91.501 64ZM98.5439 67.1133C98.1611 67.1133 97.82 67.0469 97.5205 66.9141C97.221 66.7786 96.984 66.5794 96.8096 66.3164C96.6377 66.0508 96.5518 65.7201 96.5518 65.3242C96.5518 64.9909 96.613 64.7109 96.7354 64.4844C96.8577 64.2578 97.0244 64.0755 97.2354 63.9375C97.4463 63.7995 97.6859 63.6953 97.9541 63.625C98.2249 63.5547 98.5088 63.5052 98.8057 63.4766C99.1546 63.4401 99.4359 63.4062 99.6494 63.375C99.863 63.3411 100.018 63.2917 100.114 63.2266C100.211 63.1615 100.259 63.0651 100.259 62.9375V62.9141C100.259 62.6667 100.181 62.4753 100.024 62.3398C99.8708 62.2044 99.652 62.1367 99.3682 62.1367C99.0687 62.1367 98.8304 62.2031 98.6533 62.3359C98.4762 62.4661 98.359 62.6302 98.3018 62.8281L96.7627 62.7031C96.8408 62.3385 96.9945 62.0234 97.2236 61.7578C97.4528 61.4896 97.7484 61.2839 98.1104 61.1406C98.4749 60.9948 98.8968 60.9219 99.376 60.9219C99.7093 60.9219 100.028 60.9609 100.333 61.0391C100.64 61.1172 100.912 61.2383 101.149 61.4023C101.389 61.5664 101.578 61.7773 101.716 62.0352C101.854 62.2904 101.923 62.5964 101.923 62.9531V67H100.345V66.168H100.298C100.201 66.3555 100.073 66.5208 99.9111 66.6641C99.7497 66.8047 99.5557 66.9154 99.3291 66.9961C99.1025 67.0742 98.8408 67.1133 98.5439 67.1133ZM99.0205 65.9648C99.2653 65.9648 99.4814 65.9167 99.6689 65.8203C99.8564 65.7214 100.004 65.5885 100.11 65.4219C100.217 65.2552 100.271 65.0664 100.271 64.8555V64.2188C100.218 64.2526 100.147 64.2839 100.056 64.3125C99.9671 64.3385 99.8669 64.3633 99.7549 64.3867C99.6429 64.4076 99.5309 64.4271 99.4189 64.4453C99.307 64.4609 99.2054 64.4753 99.1143 64.4883C98.9189 64.5169 98.7484 64.5625 98.6025 64.625C98.4567 64.6875 98.3434 64.7721 98.2627 64.8789C98.182 64.9831 98.1416 65.1133 98.1416 65.2695C98.1416 65.4961 98.2236 65.6693 98.3877 65.7891C98.5544 65.9062 98.7653 65.9648 99.0205 65.9648ZM103.214 67V61H104.827V62.0469H104.89C104.999 61.6745 105.183 61.3932 105.44 61.2031C105.698 61.0104 105.995 60.9141 106.331 60.9141C106.414 60.9141 106.504 60.9193 106.601 60.9297C106.697 60.9401 106.782 60.9544 106.854 60.9727V62.4492C106.776 62.4258 106.668 62.4049 106.53 62.3867C106.392 62.3685 106.266 62.3594 106.151 62.3594C105.907 62.3594 105.688 62.4128 105.495 62.5195C105.305 62.6237 105.154 62.7695 105.042 62.957C104.933 63.1445 104.878 63.3607 104.878 63.6055V67H103.214ZM109.223 65.2734L109.227 63.2773H109.469L111.391 61H113.301L110.719 64.0156H110.324L109.223 65.2734ZM107.715 67V59H109.379V67H107.715ZM111.465 67L109.699 64.3867L110.809 63.2109L113.414 67H111.465ZM116.694 67V59H118.386V62.5273H118.491L121.37 59H123.397L120.429 62.582L123.433 67H121.409L119.218 63.7109L118.386 64.7266V67H116.694ZM125.911 63.5313V67H124.247V61H125.833V62.0586H125.903C126.036 61.7096 126.259 61.4336 126.571 61.2305C126.884 61.0247 127.263 60.9219 127.708 60.9219C128.125 60.9219 128.488 61.013 128.798 61.1953C129.108 61.3776 129.349 61.638 129.521 61.9766C129.692 62.3125 129.778 62.7135 129.778 63.1797V67H128.114V63.4766C128.117 63.1094 128.023 62.8229 127.833 62.6172C127.643 62.4089 127.381 62.3047 127.048 62.3047C126.824 62.3047 126.626 62.3529 126.454 62.4492C126.285 62.5456 126.152 62.6862 126.056 62.8711C125.962 63.0534 125.914 63.2734 125.911 63.5313ZM133.801 67.1172C133.194 67.1172 132.669 66.9883 132.227 66.7305C131.786 66.4701 131.447 66.1081 131.207 65.6445C130.967 65.1784 130.848 64.638 130.848 64.0234C130.848 63.4036 130.967 62.862 131.207 62.3984C131.447 61.9323 131.786 61.5703 132.227 61.3125C132.669 61.0521 133.194 60.9219 133.801 60.9219C134.408 60.9219 134.931 61.0521 135.371 61.3125C135.814 61.5703 136.155 61.9323 136.395 62.3984C136.634 62.862 136.754 63.4036 136.754 64.0234C136.754 64.638 136.634 65.1784 136.395 65.6445C136.155 66.1081 135.814 66.4701 135.371 66.7305C134.931 66.9883 134.408 67.1172 133.801 67.1172ZM133.809 65.8281C134.085 65.8281 134.315 65.75 134.5 65.5938C134.685 65.4349 134.824 65.2187 134.918 64.9453C135.014 64.6719 135.063 64.3607 135.063 64.0117C135.063 63.6628 135.014 63.3516 134.918 63.0781C134.824 62.8047 134.685 62.5885 134.5 62.4297C134.315 62.2708 134.085 62.1914 133.809 62.1914C133.53 62.1914 133.296 62.2708 133.105 62.4297C132.918 62.5885 132.776 62.8047 132.68 63.0781C132.586 63.3516 132.539 63.6628 132.539 64.0117C132.539 64.3607 132.586 64.6719 132.68 64.9453C132.776 65.2187 132.918 65.4349 133.105 65.5938C133.296 65.75 133.53 65.8281 133.809 65.8281ZM138.869 67L137.236 61H138.92L139.85 65.0312H139.904L140.873 61H142.525L143.51 65.0078H143.561L144.475 61H146.154L144.525 67H142.764L141.732 63.2266H141.658L140.627 67H138.869ZM148.706 59V67H147.042V59H148.706ZM152.773 67.1172C152.156 67.1172 151.625 66.9922 151.18 66.7422C150.737 66.4896 150.396 66.1328 150.156 65.6719C149.917 65.2083 149.797 64.6602 149.797 64.0273C149.797 63.4102 149.917 62.8685 150.156 62.4023C150.396 61.9362 150.733 61.5729 151.168 61.3125C151.605 61.0521 152.118 60.9219 152.707 60.9219C153.103 60.9219 153.471 60.9857 153.813 61.1133C154.156 61.2383 154.456 61.4271 154.711 61.6797C154.969 61.9323 155.169 62.25 155.313 62.6328C155.456 63.013 155.527 63.4583 155.527 63.9687V64.4258H150.461V63.3945H153.961C153.961 63.1549 153.909 62.9427 153.805 62.7578C153.701 62.5729 153.556 62.4284 153.371 62.3242C153.189 62.2174 152.977 62.1641 152.734 62.1641C152.482 62.1641 152.258 62.2227 152.063 62.3398C151.87 62.4544 151.719 62.6094 151.609 62.8047C151.5 62.9974 151.444 63.2122 151.441 63.4492V64.4297C151.441 64.7266 151.496 64.9831 151.605 65.1992C151.717 65.4154 151.875 65.582 152.078 65.6992C152.281 65.8164 152.522 65.875 152.801 65.875C152.986 65.875 153.155 65.849 153.309 65.7969C153.462 65.7448 153.594 65.6667 153.703 65.5625C153.813 65.4583 153.896 65.3307 153.953 65.1797L155.492 65.2812C155.414 65.651 155.254 65.974 155.012 66.25C154.772 66.5234 154.462 66.737 154.082 66.8906C153.704 67.0417 153.268 67.1172 152.773 67.1172ZM158.824 67.0977C158.368 67.0977 157.956 66.9805 157.586 66.7461C157.219 66.5091 156.927 66.1615 156.711 65.7031C156.497 65.2422 156.391 64.6771 156.391 64.0078C156.391 63.3203 156.501 62.7487 156.723 62.293C156.944 61.8346 157.238 61.4922 157.605 61.2656C157.975 61.0365 158.38 60.9219 158.82 60.9219C159.156 60.9219 159.436 60.9792 159.66 61.0938C159.887 61.2057 160.069 61.3464 160.207 61.5156C160.348 61.6823 160.454 61.8464 160.527 62.0078H160.578V59H162.238V67H160.598V66.0391H160.527C160.449 66.2057 160.339 66.3711 160.195 66.5352C160.055 66.6966 159.871 66.8307 159.645 66.9375C159.421 67.0443 159.147 67.0977 158.824 67.0977ZM159.352 65.7734C159.62 65.7734 159.846 65.7005 160.031 65.5547C160.219 65.4062 160.362 65.1992 160.461 64.9336C160.563 64.668 160.613 64.3568 160.613 64C160.613 63.6432 160.564 63.3333 160.465 63.0703C160.366 62.8073 160.223 62.6042 160.035 62.4609C159.848 62.3177 159.62 62.2461 159.352 62.2461C159.078 62.2461 158.848 62.3203 158.66 62.4687C158.473 62.6172 158.331 62.8229 158.234 63.0859C158.138 63.349 158.09 63.6536 158.09 64C158.09 64.349 158.138 64.6576 158.234 64.9258C158.333 65.1914 158.475 65.3997 158.66 65.5508C158.848 65.6992 159.078 65.7734 159.352 65.7734ZM166.31 69.375C165.771 69.375 165.308 69.3008 164.923 69.1523C164.54 69.0065 164.235 68.8073 164.009 68.5547C163.782 68.3021 163.635 68.0182 163.567 67.7031L165.106 67.4961C165.153 67.6159 165.228 67.7279 165.329 67.832C165.431 67.9362 165.565 68.0195 165.731 68.082C165.901 68.1471 166.106 68.1797 166.349 68.1797C166.711 68.1797 167.009 68.0911 167.243 67.9141C167.48 67.7396 167.599 67.4466 167.599 67.0352V65.9375H167.528C167.455 66.1042 167.346 66.2617 167.2 66.4102C167.054 66.5586 166.867 66.6797 166.638 66.7734C166.409 66.8672 166.135 66.9141 165.817 66.9141C165.367 66.9141 164.957 66.8099 164.587 66.6016C164.22 66.3906 163.927 66.069 163.708 65.6367C163.492 65.2018 163.384 64.6523 163.384 63.9883C163.384 63.3086 163.494 62.7409 163.716 62.2852C163.937 61.8294 164.231 61.4883 164.599 61.2617C164.968 61.0352 165.373 60.9219 165.813 60.9219C166.149 60.9219 166.431 60.9792 166.657 61.0938C166.884 61.2057 167.066 61.3464 167.204 61.5156C167.345 61.6823 167.453 61.8464 167.528 62.0078H167.591V61H169.243V67.0586C169.243 67.569 169.118 67.9961 168.868 68.3398C168.618 68.6836 168.272 68.9414 167.829 69.1133C167.389 69.2878 166.882 69.375 166.31 69.375ZM166.345 65.6641C166.613 65.6641 166.84 65.5977 167.024 65.4648C167.212 65.3294 167.355 65.1367 167.454 64.8867C167.556 64.6341 167.606 64.332 167.606 63.9805C167.606 63.6289 167.557 63.3242 167.458 63.0664C167.359 62.806 167.216 62.6042 167.028 62.4609C166.841 62.3177 166.613 62.2461 166.345 62.2461C166.071 62.2461 165.841 62.3203 165.653 62.4687C165.466 62.6146 165.324 62.8177 165.228 63.0781C165.131 63.3385 165.083 63.6393 165.083 63.9805C165.083 64.3268 165.131 64.6263 165.228 64.8789C165.326 65.1289 165.468 65.3229 165.653 65.4609C165.841 65.5964 166.071 65.6641 166.345 65.6641ZM173.302 67.1172C172.685 67.1172 172.153 66.9922 171.708 66.7422C171.265 66.4896 170.924 66.1328 170.685 65.6719C170.445 65.2083 170.325 64.6602 170.325 64.0273C170.325 63.4102 170.445 62.8685 170.685 62.4023C170.924 61.9362 171.261 61.5729 171.696 61.3125C172.134 61.0521 172.647 60.9219 173.235 60.9219C173.631 60.9219 174 60.9857 174.341 61.1133C174.685 61.2383 174.984 61.4271 175.239 61.6797C175.497 61.9323 175.698 62.25 175.841 62.6328C175.984 63.013 176.056 63.4583 176.056 63.9687V64.4258H170.989V63.3945H174.489C174.489 63.1549 174.437 62.9427 174.333 62.7578C174.229 62.5729 174.084 62.4284 173.899 62.3242C173.717 62.2174 173.505 62.1641 173.263 62.1641C173.01 62.1641 172.786 62.2227 172.591 62.3398C172.398 62.4544 172.247 62.6094 172.138 62.8047C172.028 62.9974 171.972 63.2122 171.97 63.4492V64.4297C171.97 64.7266 172.024 64.9831 172.134 65.1992C172.246 65.4154 172.403 65.582 172.606 65.6992C172.81 65.8164 173.05 65.875 173.329 65.875C173.514 65.875 173.683 65.849 173.837 65.7969C173.991 65.7448 174.122 65.6667 174.231 65.5625C174.341 65.4583 174.424 65.3307 174.481 65.1797L176.021 65.2812C175.942 65.651 175.782 65.974 175.54 66.25C175.3 66.5234 174.991 66.737 174.61 66.8906C174.233 67.0417 173.797 67.1172 173.302 67.1172ZM180.871 67L179.238 61H180.922L181.852 65.0312H181.906L182.875 61H184.527L185.512 65.0078H185.563L186.477 61H188.156L186.527 67H184.766L183.734 63.2266H183.66L182.629 67H180.871ZM189.044 67V61H190.708V67H189.044ZM189.88 60.2266C189.632 60.2266 189.42 60.1445 189.243 59.9805C189.069 59.8138 188.981 59.6146 188.981 59.3828C188.981 59.1536 189.069 58.957 189.243 58.793C189.42 58.6263 189.632 58.543 189.88 58.543C190.127 58.543 190.338 58.6263 190.513 58.793C190.69 58.957 190.778 59.1536 190.778 59.3828C190.778 59.6146 190.69 59.8138 190.513 59.9805C190.338 60.1445 190.127 60.2266 189.88 60.2266ZM195.232 61V62.25H191.619V61H195.232ZM192.439 59.5625H194.104V65.1562C194.104 65.3099 194.127 65.4297 194.174 65.5156C194.221 65.599 194.286 65.6576 194.369 65.6914C194.455 65.7253 194.554 65.7422 194.666 65.7422C194.744 65.7422 194.822 65.7357 194.9 65.7227C194.979 65.707 195.038 65.6953 195.08 65.6875L195.342 66.9258C195.258 66.9518 195.141 66.9818 194.99 67.0156C194.839 67.0521 194.656 67.0742 194.439 67.082C194.038 67.0977 193.687 67.0443 193.385 66.9219C193.085 66.7995 192.852 66.6094 192.686 66.3516C192.519 66.0937 192.437 65.7682 192.439 65.375V59.5625ZM198.109 63.5313V67H196.445V59H198.063V62.0586H198.133C198.268 61.7044 198.487 61.4271 198.789 61.2266C199.091 61.0234 199.47 60.9219 199.926 60.9219C200.342 60.9219 200.706 61.013 201.016 61.1953C201.328 61.375 201.57 61.6341 201.742 61.9727C201.917 62.3086 202.003 62.7109 202 63.1797V67H200.336V63.4766C200.339 63.1068 200.245 62.819 200.055 62.6133C199.867 62.4076 199.604 62.3047 199.266 62.3047C199.039 62.3047 198.839 62.3529 198.664 62.4492C198.492 62.5456 198.357 62.6862 198.258 62.8711C198.161 63.0534 198.112 63.2734 198.109 63.5313ZM205.887 59H207.973L210.176 64.375H210.27L212.473 59H214.559V67H212.918V61.793H212.852L210.781 66.9609H209.664L207.594 61.7734H207.527V67H205.887V59ZM215.921 67V61H217.585V67H215.921ZM216.757 60.2266C216.509 60.2266 216.297 60.1445 216.12 59.9805C215.946 59.8138 215.858 59.6146 215.858 59.3828C215.858 59.1536 215.946 58.957 216.12 58.793C216.297 58.6263 216.509 58.543 216.757 58.543C217.004 58.543 217.215 58.6263 217.39 58.793C217.567 58.957 217.655 59.1536 217.655 59.3828C217.655 59.6146 217.567 59.8138 217.39 59.9805C217.215 60.1445 217.004 60.2266 216.757 60.2266ZM218.918 67V61H220.531V62.0469H220.594C220.703 61.6745 220.887 61.3932 221.145 61.2031C221.402 61.0104 221.699 60.9141 222.035 60.9141C222.118 60.9141 222.208 60.9193 222.305 60.9297C222.401 60.9401 222.486 60.9544 222.559 60.9727V62.4492C222.48 62.4258 222.372 62.4049 222.234 62.3867C222.096 62.3685 221.97 62.3594 221.855 62.3594C221.611 62.3594 221.392 62.4128 221.199 62.5195C221.009 62.6237 220.858 62.7695 220.746 62.957C220.637 63.1445 220.582 63.3607 220.582 63.6055V67H218.918ZM224.958 67.1133C224.575 67.1133 224.234 67.0469 223.935 66.9141C223.635 66.7786 223.398 66.5794 223.224 66.3164C223.052 66.0508 222.966 65.7201 222.966 65.3242C222.966 64.9909 223.027 64.7109 223.149 64.4844C223.272 64.2578 223.438 64.0755 223.649 63.9375C223.86 63.7995 224.1 63.6953 224.368 63.625C224.639 63.5547 224.923 63.5052 225.22 63.4766C225.569 63.4401 225.85 63.4062 226.063 63.375C226.277 63.3411 226.432 63.2917 226.528 63.2266C226.625 63.1615 226.673 63.0651 226.673 62.9375V62.9141C226.673 62.6667 226.595 62.4753 226.438 62.3398C226.285 62.2044 226.066 62.1367 225.782 62.1367C225.483 62.1367 225.244 62.2031 225.067 62.3359C224.89 62.4661 224.773 62.6302 224.716 62.8281L223.177 62.7031C223.255 62.3385 223.409 62.0234 223.638 61.7578C223.867 61.4896 224.162 61.2839 224.524 61.1406C224.889 60.9948 225.311 60.9219 225.79 60.9219C226.123 60.9219 226.442 60.9609 226.747 61.0391C227.054 61.1172 227.326 61.2383 227.563 61.4023C227.803 61.5664 227.992 61.7773 228.13 62.0352C228.268 62.2904 228.337 62.5964 228.337 62.9531V67H226.759V66.168H226.712C226.616 66.3555 226.487 66.5208 226.325 66.6641C226.164 66.8047 225.97 66.9154 225.743 66.9961C225.517 67.0742 225.255 67.1133 224.958 67.1133ZM225.435 65.9648C225.679 65.9648 225.896 65.9167 226.083 65.8203C226.271 65.7214 226.418 65.5885 226.524 65.4219C226.631 65.2552 226.685 65.0664 226.685 64.8555V64.2188C226.632 64.2526 226.561 64.2839 226.47 64.3125C226.381 64.3385 226.281 64.3633 226.169 64.3867C226.057 64.4076 225.945 64.4271 225.833 64.4453C225.721 64.4609 225.619 64.4753 225.528 64.4883C225.333 64.5169 225.162 64.5625 225.017 64.625C224.871 64.6875 224.757 64.7721 224.677 64.8789C224.596 64.9831 224.556 65.1133 224.556 65.2695C224.556 65.4961 224.638 65.6693 224.802 65.7891C224.968 65.9062 225.179 65.9648 225.435 65.9648ZM231.292 63.5313V67H229.628V61H231.214V62.0586H231.284C231.417 61.7096 231.64 61.4336 231.952 61.2305C232.265 61.0247 232.644 60.9219 233.089 60.9219C233.506 60.9219 233.869 61.013 234.179 61.1953C234.489 61.3776 234.729 61.638 234.901 61.9766C235.073 62.3125 235.159 62.7135 235.159 63.1797V67H233.495V63.4766C233.498 63.1094 233.404 62.8229 233.214 62.6172C233.024 62.4089 232.762 62.3047 232.429 62.3047C232.205 62.3047 232.007 62.3529 231.835 62.4492C231.666 62.5456 231.533 62.6862 231.437 62.8711C231.343 63.0534 231.295 63.2734 231.292 63.5313ZM238.182 67.1133C237.799 67.1133 237.458 67.0469 237.158 66.9141C236.859 66.7786 236.622 66.5794 236.447 66.3164C236.275 66.0508 236.189 65.7201 236.189 65.3242C236.189 64.9909 236.251 64.7109 236.373 64.4844C236.495 64.2578 236.662 64.0755 236.873 63.9375C237.084 63.7995 237.324 63.6953 237.592 63.625C237.863 63.5547 238.146 63.5052 238.443 63.4766C238.792 63.4401 239.074 63.4062 239.287 63.375C239.501 63.3411 239.656 63.2917 239.752 63.2266C239.848 63.1615 239.896 63.0651 239.896 62.9375V62.9141C239.896 62.6667 239.818 62.4753 239.662 62.3398C239.508 62.2044 239.29 62.1367 239.006 62.1367C238.706 62.1367 238.468 62.2031 238.291 62.3359C238.114 62.4661 237.997 62.6302 237.939 62.8281L236.4 62.7031C236.479 62.3385 236.632 62.0234 236.861 61.7578C237.09 61.4896 237.386 61.2839 237.748 61.1406C238.113 60.9948 238.535 60.9219 239.014 60.9219C239.347 60.9219 239.666 60.9609 239.971 61.0391C240.278 61.1172 240.55 61.2383 240.787 61.4023C241.027 61.5664 241.215 61.7773 241.354 62.0352C241.492 62.2904 241.561 62.5964 241.561 62.9531V67H239.982V66.168H239.936C239.839 66.3555 239.71 66.5208 239.549 66.6641C239.387 66.8047 239.193 66.9154 238.967 66.9961C238.74 67.0742 238.479 67.1133 238.182 67.1133ZM238.658 65.9648C238.903 65.9648 239.119 65.9167 239.307 65.8203C239.494 65.7214 239.641 65.5885 239.748 65.4219C239.855 65.2552 239.908 65.0664 239.908 64.8555V64.2188C239.856 64.2526 239.785 64.2839 239.693 64.3125C239.605 64.3385 239.505 64.3633 239.393 64.3867C239.281 64.4076 239.169 64.4271 239.057 64.4453C238.945 64.4609 238.843 64.4753 238.752 64.4883C238.557 64.5169 238.386 64.5625 238.24 64.625C238.094 64.6875 237.981 64.7721 237.9 64.8789C237.82 64.9831 237.779 65.1133 237.779 65.2695C237.779 65.4961 237.861 65.6693 238.025 65.7891C238.192 65.9062 238.403 65.9648 238.658 65.9648ZM244.246 59V59.8437C244.246 60.0833 244.199 60.3281 244.105 60.5781C244.014 60.8255 243.892 61.0599 243.738 61.2812C243.585 61.5 243.417 61.6862 243.234 61.8398L242.5 61.4062C242.63 61.2005 242.745 60.9727 242.844 60.7227C242.945 60.4727 242.996 60.1823 242.996 59.8516V59H244.246ZM249.595 62.7109L248.071 62.8047C248.045 62.6745 247.989 62.5573 247.903 62.4531C247.817 62.3464 247.704 62.2617 247.563 62.1992C247.425 62.1341 247.26 62.1016 247.067 62.1016C246.81 62.1016 246.592 62.1562 246.415 62.2656C246.238 62.3724 246.149 62.5156 246.149 62.6953C246.149 62.8385 246.207 62.9596 246.321 63.0586C246.436 63.1576 246.632 63.237 246.911 63.2969L247.997 63.5156C248.58 63.6354 249.015 63.8281 249.302 64.0937C249.588 64.3594 249.731 64.7083 249.731 65.1406C249.731 65.5339 249.616 65.8789 249.384 66.1758C249.155 66.4727 248.84 66.7044 248.438 66.8711C248.04 67.0352 247.58 67.1172 247.06 67.1172C246.265 67.1172 245.632 66.9518 245.161 66.6211C244.692 66.2878 244.418 65.8346 244.337 65.2617L245.974 65.1758C246.023 65.418 246.143 65.6029 246.333 65.7305C246.523 65.8555 246.767 65.918 247.063 65.918C247.355 65.918 247.59 65.862 247.767 65.75C247.946 65.6354 248.037 65.4883 248.04 65.3086C248.037 65.1576 247.974 65.0339 247.849 64.9375C247.724 64.8385 247.531 64.763 247.271 64.7109L246.231 64.5039C245.646 64.3867 245.209 64.1836 244.923 63.8945C244.639 63.6055 244.497 63.237 244.497 62.7891C244.497 62.4036 244.601 62.0716 244.81 61.793C245.021 61.5143 245.316 61.2995 245.696 61.1484C246.079 60.9974 246.527 60.9219 247.04 60.9219C247.798 60.9219 248.394 61.082 248.829 61.4023C249.267 61.7227 249.522 62.1589 249.595 62.7109ZM258.661 61.5859C258.606 61.3958 258.53 61.2279 258.431 61.082C258.332 60.9336 258.211 60.8086 258.067 60.707C257.927 60.6029 257.765 60.5234 257.583 60.4688C257.403 60.4141 257.204 60.3867 256.985 60.3867C256.576 60.3867 256.217 60.4883 255.907 60.6914C255.6 60.8945 255.36 61.1901 255.188 61.5781C255.017 61.9635 254.931 62.4349 254.931 62.9922C254.931 63.5495 255.015 64.0234 255.185 64.4141C255.354 64.8047 255.593 65.1029 255.903 65.3086C256.213 65.5117 256.579 65.6133 257.001 65.6133C257.384 65.6133 257.711 65.5456 257.981 65.4102C258.255 65.2721 258.463 65.0781 258.606 64.8281C258.752 64.5781 258.825 64.2826 258.825 63.9414L259.169 63.9922H257.106V62.7187H260.454V63.7266C260.454 64.4297 260.306 65.0339 260.009 65.5391C259.712 66.0417 259.303 66.4297 258.782 66.7031C258.261 66.974 257.665 67.1094 256.993 67.1094C256.243 67.1094 255.584 66.944 255.017 66.6133C254.449 66.2799 254.006 65.8073 253.688 65.1953C253.373 64.5807 253.216 63.8516 253.216 63.0078C253.216 62.3594 253.31 61.7812 253.497 61.2734C253.687 60.763 253.953 60.3307 254.294 59.9766C254.635 59.6224 255.032 59.3529 255.485 59.168C255.938 58.9831 256.429 58.8906 256.958 58.8906C257.411 58.8906 257.833 58.957 258.224 59.0898C258.614 59.2201 258.961 59.4049 259.263 59.6445C259.567 59.8841 259.816 60.1693 260.009 60.5C260.201 60.8281 260.325 61.1901 260.38 61.5859H258.661ZM263.357 59V67H261.693V59H263.357ZM267.401 67.1172C266.795 67.1172 266.27 66.9883 265.827 66.7305C265.387 66.4701 265.047 66.1081 264.808 65.6445C264.568 65.1784 264.448 64.638 264.448 64.0234C264.448 63.4036 264.568 62.862 264.808 62.3984C265.047 61.9323 265.387 61.5703 265.827 61.3125C266.27 61.0521 266.795 60.9219 267.401 60.9219C268.008 60.9219 268.532 61.0521 268.972 61.3125C269.414 61.5703 269.756 61.9323 269.995 62.3984C270.235 62.862 270.354 63.4036 270.354 64.0234C270.354 64.638 270.235 65.1784 269.995 65.6445C269.756 66.1081 269.414 66.4701 268.972 66.7305C268.532 66.9883 268.008 67.1172 267.401 67.1172ZM267.409 65.8281C267.685 65.8281 267.916 65.75 268.101 65.5938C268.285 65.4349 268.425 65.2187 268.519 64.9453C268.615 64.6719 268.663 64.3607 268.663 64.0117C268.663 63.6628 268.615 63.3516 268.519 63.0781C268.425 62.8047 268.285 62.5885 268.101 62.4297C267.916 62.2708 267.685 62.1914 267.409 62.1914C267.131 62.1914 266.896 62.2708 266.706 62.4297C266.519 62.5885 266.377 62.8047 266.28 63.0781C266.187 63.3516 266.14 63.6628 266.14 64.0117C266.14 64.3607 266.187 64.6719 266.28 64.9453C266.377 65.2187 266.519 65.4349 266.706 65.5938C266.896 65.75 267.131 65.8281 267.409 65.8281ZM272.47 67L270.837 61H272.521L273.45 65.0312H273.505L274.474 61H276.126L277.11 65.0078H277.161L278.075 61H279.755L278.126 67H276.364L275.333 63.2266H275.259L274.228 67H272.47Z" fill="black"/>
<path d="M117.788 21.5H118.333M112.333 16.5V16M112.333 27V26.5M116.697 25.5L116.152 25M116.697 17.5L116.152 18M107.97 25.5L108.515 25M107.97 17.5L108.515 18M106.333 21.5H106.879M112.333 24.5C113.201 24.5 114.034 24.1839 114.648 23.6213C115.261 23.0587 115.606 22.2956 115.606 21.5C115.606 20.7044 115.261 19.9413 114.648 19.3787C114.034 18.8161 113.201 18.5 112.333 18.5C111.465 18.5 110.633 18.8161 110.019 19.3787C109.405 19.9413 109.061 20.7044 109.061 21.5C109.061 22.2956 109.405 23.0587 110.019 23.6213C110.633 24.1839 111.465 24.5 112.333 24.5Z" stroke="black" stroke-width="1.5" stroke-linecap="round" stroke-linejoin="round"/>
<rect x="109" y="29" width="6" height="16" fill="black"/>
<path d="M39.3472 12.3108C31.2814 35.7199 32.0604 54.9857 40.3212 76L15.0879 43.5278L39.3472 12.3108Z" fill="black"/>
<path d="M57.5121 25.3263C44.2064 40.669 40.3754 50.2951 38.6272 68.8987C36.1596 56.4938 35.2545 49.0752 37.135 33.4394L57.5121 25.3263Z" fill="black"/>
<path d="M71.582 40.3479C53.6379 54.2389 40.327 69.7708 40.738 72.6655C40.1841 66.2865 45.3099 44.2137 50.3875 40.3479L71.582 40.3479Z" fill="black"/>
</svg>
