<svg width="316" height="69" viewBox="0 0 316 69" fill="none" xmlns="http://www.w3.org/2000/svg">
<path d="M113.773 27.9091V38H108.932V20.5455H113.545V23.625H113.75C114.136 22.6098 114.784 21.8068 115.693 21.2159C116.602 20.6174 117.705 20.3182 119 20.3182C120.212 20.3182 121.269 20.5833 122.17 21.1136C123.072 21.6439 123.773 22.4015 124.273 23.3864C124.773 24.3636 125.023 25.5303 125.023 26.8864V38H120.182V27.75C120.189 26.6818 119.917 25.8485 119.364 25.25C118.811 24.6439 118.049 24.3409 117.08 24.3409C116.428 24.3409 115.852 24.4811 115.352 24.7614C114.86 25.0417 114.473 25.4508 114.193 25.9886C113.92 26.5189 113.78 27.1591 113.773 27.9091ZM133.815 38.3295C132.702 38.3295 131.709 38.1364 130.838 37.75C129.967 37.3561 129.277 36.7765 128.77 36.0114C128.27 35.2386 128.02 34.2765 128.02 33.125C128.02 32.1553 128.198 31.3409 128.554 30.6818C128.91 30.0227 129.395 29.4924 130.009 29.0909C130.622 28.6894 131.319 28.3864 132.099 28.1818C132.887 27.9773 133.713 27.8333 134.577 27.75C135.592 27.6439 136.41 27.5455 137.031 27.4545C137.652 27.3561 138.103 27.2121 138.384 27.0227C138.664 26.8333 138.804 26.553 138.804 26.1818V26.1136C138.804 25.3939 138.577 24.8371 138.122 24.4432C137.675 24.0492 137.039 23.8523 136.213 23.8523C135.342 23.8523 134.649 24.0455 134.134 24.4318C133.618 24.8106 133.277 25.2879 133.111 25.8636L128.634 25.5C128.861 24.4394 129.308 23.5227 129.974 22.75C130.641 21.9697 131.501 21.3712 132.554 20.9545C133.615 20.5303 134.842 20.3182 136.236 20.3182C137.205 20.3182 138.134 20.4318 139.02 20.6591C139.914 20.8864 140.705 21.2386 141.395 21.7159C142.092 22.1932 142.641 22.8068 143.043 23.5568C143.444 24.2992 143.645 25.1894 143.645 26.2273V38H139.054V35.5795H138.918C138.637 36.125 138.262 36.6061 137.793 37.0227C137.323 37.4318 136.759 37.7538 136.099 37.9886C135.44 38.2159 134.679 38.3295 133.815 38.3295ZM135.202 34.9886C135.914 34.9886 136.543 34.8485 137.088 34.5682C137.634 34.2803 138.062 33.8939 138.372 33.4091C138.683 32.9242 138.838 32.375 138.838 31.7614V29.9091C138.687 30.0076 138.478 30.0985 138.213 30.1818C137.955 30.2576 137.664 30.3295 137.338 30.3977C137.012 30.4583 136.687 30.5152 136.361 30.5682C136.035 30.6136 135.74 30.6553 135.474 30.6932C134.906 30.7765 134.41 30.9091 133.986 31.0909C133.562 31.2727 133.232 31.5189 132.997 31.8295C132.762 32.1326 132.645 32.5114 132.645 32.9659C132.645 33.625 132.884 34.1288 133.361 34.4773C133.846 34.8182 134.459 34.9886 135.202 34.9886ZM147.401 38V20.5455H152.094V23.5909H152.276C152.594 22.5076 153.128 21.6894 153.878 21.1364C154.628 20.5758 155.491 20.2955 156.469 20.2955C156.711 20.2955 156.973 20.3106 157.253 20.3409C157.533 20.3712 157.779 20.4129 157.991 20.4659V24.7614C157.764 24.6932 157.45 24.6326 157.048 24.5795C156.647 24.5265 156.279 24.5 155.946 24.5C155.234 24.5 154.598 24.6553 154.037 24.9659C153.484 25.2689 153.045 25.6932 152.719 26.2386C152.401 26.7841 152.241 27.4129 152.241 28.125V38H147.401ZM164.972 38.3295C163.858 38.3295 162.866 38.1364 161.994 37.75C161.123 37.3561 160.434 36.7765 159.926 36.0114C159.426 35.2386 159.176 34.2765 159.176 33.125C159.176 32.1553 159.354 31.3409 159.71 30.6818C160.066 30.0227 160.551 29.4924 161.165 29.0909C161.778 28.6894 162.475 28.3864 163.256 28.1818C164.044 27.9773 164.869 27.8333 165.733 27.75C166.748 27.6439 167.566 27.5455 168.188 27.4545C168.809 27.3561 169.259 27.2121 169.54 27.0227C169.82 26.8333 169.96 26.553 169.96 26.1818V26.1136C169.96 25.3939 169.733 24.8371 169.278 24.4432C168.831 24.0492 168.195 23.8523 167.369 23.8523C166.498 23.8523 165.805 24.0455 165.29 24.4318C164.775 24.8106 164.434 25.2879 164.267 25.8636L159.79 25.5C160.017 24.4394 160.464 23.5227 161.131 22.75C161.797 21.9697 162.657 21.3712 163.71 20.9545C164.771 20.5303 165.998 20.3182 167.392 20.3182C168.362 20.3182 169.29 20.4318 170.176 20.6591C171.07 20.8864 171.862 21.2386 172.551 21.7159C173.248 22.1932 173.797 22.8068 174.199 23.5568C174.6 24.2992 174.801 25.1894 174.801 26.2273V38H170.21V35.5795H170.074C169.794 36.125 169.419 36.6061 168.949 37.0227C168.479 37.4318 167.915 37.7538 167.256 37.9886C166.597 38.2159 165.835 38.3295 164.972 38.3295ZM166.358 34.9886C167.07 34.9886 167.699 34.8485 168.244 34.5682C168.79 34.2803 169.218 33.8939 169.528 33.4091C169.839 32.9242 169.994 32.375 169.994 31.7614V29.9091C169.843 30.0076 169.634 30.0985 169.369 30.1818C169.112 30.2576 168.82 30.3295 168.494 30.3977C168.169 30.4583 167.843 30.5152 167.517 30.5682C167.191 30.6136 166.896 30.6553 166.631 30.6932C166.063 30.7765 165.566 30.9091 165.142 31.0909C164.718 31.2727 164.388 31.5189 164.153 31.8295C163.919 32.1326 163.801 32.5114 163.801 32.9659C163.801 33.625 164.04 34.1288 164.517 34.4773C165.002 34.8182 165.616 34.9886 166.358 34.9886ZM186.054 38V14.7273H190.974V33.9432H200.952V38H186.054ZM212.074 38.3409C210.278 38.3409 208.733 37.9773 207.438 37.25C206.15 36.5152 205.157 35.4773 204.46 34.1364C203.763 32.7879 203.415 31.1932 203.415 29.3523C203.415 27.5568 203.763 25.9811 204.46 24.625C205.157 23.2689 206.138 22.2121 207.403 21.4545C208.676 20.697 210.169 20.3182 211.881 20.3182C213.032 20.3182 214.104 20.5038 215.097 20.875C216.097 21.2386 216.968 21.7879 217.71 22.5227C218.46 23.2576 219.044 24.1818 219.46 25.2955C219.877 26.4015 220.085 27.697 220.085 29.1818V30.5114H205.347V27.5114H215.528C215.528 26.8144 215.377 26.197 215.074 25.6591C214.771 25.1212 214.35 24.7008 213.812 24.3977C213.282 24.0871 212.665 23.9318 211.96 23.9318C211.225 23.9318 210.574 24.1023 210.006 24.4432C209.445 24.7765 209.006 25.2273 208.688 25.7955C208.369 26.3561 208.206 26.9811 208.199 27.6705V30.5227C208.199 31.3864 208.358 32.1326 208.676 32.7614C209.002 33.3902 209.46 33.875 210.051 34.2159C210.642 34.5568 211.343 34.7273 212.153 34.7273C212.691 34.7273 213.184 34.6515 213.631 34.5C214.078 34.3485 214.46 34.1212 214.778 33.8182C215.097 33.5152 215.339 33.1439 215.506 32.7045L219.983 33C219.756 34.0758 219.29 35.0152 218.585 35.8182C217.888 36.6136 216.987 37.2348 215.881 37.6818C214.782 38.1212 213.513 38.3409 212.074 38.3409ZM228.222 38.3295C227.108 38.3295 226.116 38.1364 225.244 37.75C224.373 37.3561 223.684 36.7765 223.176 36.0114C222.676 35.2386 222.426 34.2765 222.426 33.125C222.426 32.1553 222.604 31.3409 222.96 30.6818C223.316 30.0227 223.801 29.4924 224.415 29.0909C225.028 28.6894 225.725 28.3864 226.506 28.1818C227.294 27.9773 228.119 27.8333 228.983 27.75C229.998 27.6439 230.816 27.5455 231.438 27.4545C232.059 27.3561 232.509 27.2121 232.79 27.0227C233.07 26.8333 233.21 26.553 233.21 26.1818V26.1136C233.21 25.3939 232.983 24.8371 232.528 24.4432C232.081 24.0492 231.445 23.8523 230.619 23.8523C229.748 23.8523 229.055 24.0455 228.54 24.4318C228.025 24.8106 227.684 25.2879 227.517 25.8636L223.04 25.5C223.267 24.4394 223.714 23.5227 224.381 22.75C225.047 21.9697 225.907 21.3712 226.96 20.9545C228.021 20.5303 229.248 20.3182 230.642 20.3182C231.612 20.3182 232.54 20.4318 233.426 20.6591C234.32 20.8864 235.112 21.2386 235.801 21.7159C236.498 22.1932 237.047 22.8068 237.449 23.5568C237.85 24.2992 238.051 25.1894 238.051 26.2273V38H233.46V35.5795H233.324C233.044 36.125 232.669 36.6061 232.199 37.0227C231.729 37.4318 231.165 37.7538 230.506 37.9886C229.847 38.2159 229.085 38.3295 228.222 38.3295ZM229.608 34.9886C230.32 34.9886 230.949 34.8485 231.494 34.5682C232.04 34.2803 232.468 33.8939 232.778 33.4091C233.089 32.9242 233.244 32.375 233.244 31.7614V29.9091C233.093 30.0076 232.884 30.0985 232.619 30.1818C232.362 30.2576 232.07 30.3295 231.744 30.3977C231.419 30.4583 231.093 30.5152 230.767 30.5682C230.441 30.6136 230.146 30.6553 229.881 30.6932C229.313 30.7765 228.816 30.9091 228.392 31.0909C227.968 31.2727 227.638 31.5189 227.403 31.8295C227.169 32.1326 227.051 32.5114 227.051 32.9659C227.051 33.625 227.29 34.1288 227.767 34.4773C228.252 34.8182 228.866 34.9886 229.608 34.9886ZM241.807 38V20.5455H246.5V23.5909H246.682C247 22.5076 247.534 21.6894 248.284 21.1364C249.034 20.5758 249.898 20.2955 250.875 20.2955C251.117 20.2955 251.379 20.3106 251.659 20.3409C251.939 20.3712 252.186 20.4129 252.398 20.4659V24.7614C252.17 24.6932 251.856 24.6326 251.455 24.5795C251.053 24.5265 250.686 24.5 250.352 24.5C249.64 24.5 249.004 24.6553 248.443 24.9659C247.89 25.2689 247.451 25.6932 247.125 26.2386C246.807 26.7841 246.648 27.4129 246.648 28.125V38H241.807ZM259.741 27.9091V38H254.901V20.5455H259.514V23.625H259.719C260.105 22.6098 260.753 21.8068 261.662 21.2159C262.571 20.6174 263.673 20.3182 264.969 20.3182C266.181 20.3182 267.238 20.5833 268.139 21.1136C269.041 21.6439 269.741 22.4015 270.241 23.3864C270.741 24.3636 270.991 25.5303 270.991 26.8864V38H266.151V27.75C266.158 26.6818 265.885 25.8485 265.332 25.25C264.779 24.6439 264.018 24.3409 263.048 24.3409C262.397 24.3409 261.821 24.4811 261.321 24.7614C260.829 25.0417 260.442 25.4508 260.162 25.9886C259.889 26.5189 259.749 27.1591 259.741 27.9091Z" fill="white"/>
<path d="M69.0227 14.7273H75.0909L81.5 30.3636H81.7727L88.1818 14.7273H94.25V38H89.4773V22.8523H89.2841L83.2614 37.8864H80.0114L73.9886 22.7955H73.7955V38H69.0227V14.7273Z" fill="white"/>
<path d="M73.8217 62V52.5455H80.1925V54.1935H75.8207V56.4464H79.8647V58.0945H75.8207V60.3519H80.2109V62H73.8217ZM84.3577 62.1154C83.8191 62.1154 83.3313 61.9769 82.8943 61.6999C82.4603 61.4199 82.1156 61.009 81.8602 60.4673C81.6078 59.9226 81.4816 59.2547 81.4816 58.4638C81.4816 57.6513 81.6124 56.9757 81.874 56.4371C82.1356 55.8955 82.4834 55.4908 82.9173 55.223C83.3544 54.9522 83.8329 54.8168 84.3531 54.8168C84.7501 54.8168 85.0809 54.8845 85.3456 55.0199C85.6134 55.1522 85.8288 55.3184 85.9919 55.5185C86.1581 55.7154 86.2843 55.9093 86.3705 56.1001H86.4305V52.5455H88.3925V62H86.4536V60.8643H86.3705C86.2781 61.0613 86.1473 61.2567 85.9781 61.4506C85.8119 61.6415 85.5949 61.8 85.3271 61.9261C85.0625 62.0523 84.7393 62.1154 84.3577 62.1154ZM84.9809 60.5504C85.2979 60.5504 85.5657 60.4643 85.7842 60.2919C86.0058 60.1165 86.175 59.8718 86.292 59.5579C86.412 59.244 86.472 58.8762 86.472 58.4545C86.472 58.0329 86.4136 57.6667 86.2966 57.3558C86.1797 57.045 86.0104 56.8049 85.7888 56.6357C85.5672 56.4664 85.2979 56.3817 84.9809 56.3817C84.6578 56.3817 84.3854 56.4695 84.1638 56.6449C83.9422 56.8203 83.7745 57.0634 83.6606 57.3743C83.5467 57.6851 83.4898 58.0452 83.4898 58.4545C83.4898 58.867 83.5467 59.2317 83.6606 59.5487C83.7776 59.8626 83.9453 60.1088 84.1638 60.2873C84.3854 60.4627 84.6578 60.5504 84.9809 60.5504ZM94.5566 58.9808V54.9091H96.5233V62H94.6351V60.712H94.5613C94.4012 61.1275 94.135 61.4614 93.7626 61.7138C93.3933 61.9661 92.9424 62.0923 92.41 62.0923C91.936 62.0923 91.519 61.9846 91.1589 61.7692C90.7988 61.5537 90.5172 61.2475 90.3141 60.8505C90.1141 60.4535 90.0125 59.978 90.0094 59.424V54.9091H91.976V59.0732C91.9791 59.4917 92.0914 59.8226 92.313 60.0657C92.5346 60.3088 92.8316 60.4304 93.204 60.4304C93.441 60.4304 93.6626 60.3765 93.8688 60.2688C94.075 60.158 94.2412 59.9949 94.3674 59.7795C94.4966 59.564 94.5597 59.2978 94.5566 58.9808ZM101.3 62.1385C100.574 62.1385 99.9491 61.9846 99.4259 61.6768C98.9057 61.366 98.5057 60.9351 98.2256 60.3842C97.9486 59.8333 97.8101 59.1993 97.8101 58.4822C97.8101 57.7559 97.9501 57.1188 98.2302 56.571C98.5133 56.0201 98.915 55.5908 99.4351 55.283C99.9552 54.9722 100.574 54.8168 101.291 54.8168C101.91 54.8168 102.451 54.9291 102.916 55.1538C103.381 55.3784 103.748 55.6939 104.019 56.1001C104.29 56.5064 104.439 56.9834 104.467 57.5312H102.611C102.559 57.1773 102.42 56.8926 102.196 56.6772C101.974 56.4587 101.683 56.3494 101.323 56.3494C101.019 56.3494 100.752 56.4325 100.525 56.5987C100.3 56.7618 100.124 57.0004 99.9983 57.3143C99.8721 57.6282 99.809 58.0083 99.809 58.4545C99.809 58.907 99.8706 59.2917 99.9937 59.6087C100.12 59.9257 100.297 60.1673 100.525 60.3335C100.752 60.4996 101.019 60.5827 101.323 60.5827C101.548 60.5827 101.749 60.5366 101.928 60.4442C102.11 60.3519 102.259 60.218 102.376 60.0426C102.496 59.8641 102.574 59.6502 102.611 59.4009H104.467C104.436 59.9426 104.289 60.4196 104.024 60.832C103.762 61.2414 103.401 61.5614 102.939 61.7923C102.477 62.0231 101.931 62.1385 101.3 62.1385ZM107.748 62.1339C107.296 62.1339 106.893 62.0554 106.539 61.8984C106.185 61.7384 105.905 61.503 105.699 61.1921C105.495 60.8782 105.394 60.4873 105.394 60.0195C105.394 59.6256 105.466 59.2947 105.611 59.027C105.755 58.7592 105.952 58.5438 106.202 58.3807C106.451 58.2176 106.734 58.0945 107.051 58.0114C107.371 57.9283 107.707 57.8698 108.058 57.8359C108.47 57.7929 108.802 57.7528 109.055 57.7159C109.307 57.6759 109.49 57.6174 109.604 57.5405C109.718 57.4635 109.775 57.3497 109.775 57.1989V57.1712C109.775 56.8788 109.683 56.6526 109.498 56.4925C109.316 56.3325 109.058 56.2525 108.722 56.2525C108.368 56.2525 108.087 56.331 107.877 56.4879C107.668 56.6418 107.53 56.8357 107.462 57.0696L105.643 56.9219C105.735 56.491 105.917 56.1186 106.188 55.8047C106.459 55.4877 106.808 55.2446 107.236 55.0753C107.667 54.9029 108.165 54.8168 108.732 54.8168C109.125 54.8168 109.502 54.8629 109.863 54.9553C110.226 55.0476 110.547 55.1907 110.827 55.3846C111.111 55.5785 111.334 55.8278 111.497 56.1325C111.66 56.4341 111.741 56.7957 111.741 57.2173V62H109.876V61.0167H109.821C109.707 61.2383 109.555 61.4337 109.364 61.603C109.173 61.7692 108.944 61.9 108.676 61.9954C108.408 62.0877 108.099 62.1339 107.748 62.1339ZM108.311 60.7766C108.601 60.7766 108.856 60.7197 109.078 60.6058C109.299 60.4889 109.473 60.3319 109.599 60.1349C109.726 59.938 109.789 59.7148 109.789 59.4656V58.7131C109.727 58.7531 109.643 58.79 109.535 58.8239C109.43 58.8546 109.312 58.8839 109.179 58.9116C109.047 58.9362 108.915 58.9593 108.782 58.9808C108.65 58.9993 108.53 59.0162 108.422 59.0316C108.191 59.0655 107.99 59.1193 107.817 59.1932C107.645 59.267 107.511 59.3671 107.416 59.4933C107.32 59.6164 107.273 59.7702 107.273 59.9549C107.273 60.2227 107.37 60.4273 107.564 60.5689C107.761 60.7074 108.01 60.7766 108.311 60.7766ZM117.039 54.9091V56.3864H112.769V54.9091H117.039ZM113.738 53.2102H115.705V59.821C115.705 60.0026 115.732 60.1442 115.788 60.2457C115.843 60.3442 115.92 60.4135 116.019 60.4535C116.12 60.4935 116.237 60.5135 116.369 60.5135C116.462 60.5135 116.554 60.5058 116.646 60.4904C116.739 60.4719 116.81 60.4581 116.859 60.4489L117.168 61.9123C117.07 61.9431 116.931 61.9785 116.753 62.0185C116.574 62.0616 116.357 62.0877 116.102 62.0969C115.628 62.1154 115.212 62.0523 114.855 61.9077C114.501 61.763 114.226 61.5384 114.029 61.2337C113.832 60.929 113.735 60.5443 113.738 60.0795V53.2102ZM121.475 62.1385C120.746 62.1385 120.118 61.9908 119.592 61.6953C119.069 61.3968 118.665 60.9751 118.382 60.4304C118.099 59.8826 117.958 59.2347 117.958 58.4869C117.958 57.7575 118.099 57.1173 118.382 56.5664C118.665 56.0155 119.064 55.5862 119.578 55.2784C120.095 54.9706 120.701 54.8168 121.397 54.8168C121.865 54.8168 122.3 54.8922 122.703 55.043C123.11 55.1907 123.463 55.4138 123.765 55.7124C124.07 56.0109 124.307 56.3864 124.476 56.8388C124.645 57.2881 124.73 57.8144 124.73 58.4176V58.9577H118.742V57.739H122.879C122.879 57.4558 122.817 57.205 122.694 56.9865C122.571 56.768 122.4 56.5972 122.182 56.4741C121.966 56.3479 121.715 56.2848 121.429 56.2848C121.131 56.2848 120.866 56.354 120.635 56.4925C120.407 56.628 120.229 56.8111 120.1 57.0419C119.97 57.2696 119.904 57.5236 119.901 57.8036V58.9624C119.901 59.3132 119.966 59.6164 120.095 59.8718C120.227 60.1272 120.414 60.3242 120.654 60.4627C120.894 60.6012 121.178 60.6705 121.508 60.6705C121.726 60.6705 121.926 60.6397 122.108 60.5781C122.289 60.5166 122.445 60.4242 122.574 60.3011C122.703 60.178 122.802 60.0272 122.869 59.8487L124.688 59.9688C124.596 60.4058 124.407 60.7874 124.121 61.1136C123.837 61.4368 123.471 61.6892 123.022 61.8707C122.576 62.0492 122.06 62.1385 121.475 62.1385ZM127.163 62.12C126.858 62.12 126.597 62.0123 126.378 61.7969C126.163 61.5784 126.055 61.3168 126.055 61.0121C126.055 60.7105 126.163 60.4519 126.378 60.2365C126.597 60.0211 126.858 59.9134 127.163 59.9134C127.458 59.9134 127.717 60.0211 127.938 60.2365C128.16 60.4519 128.271 60.7105 128.271 61.0121C128.271 61.2152 128.218 61.4014 128.114 61.5707C128.012 61.7369 127.878 61.8707 127.712 61.9723C127.546 62.0708 127.363 62.12 127.163 62.12ZM134.486 52.5455V62H132.487V52.5455H134.486ZM138.06 52.5455V62H136.093V52.5455H138.06ZM141.602 52.5455V62H139.635V52.5455H141.602ZM147.725 58.9808V54.9091H149.691V62H147.803V60.712H147.729C147.569 61.1275 147.303 61.4614 146.931 61.7138C146.561 61.9661 146.11 62.0923 145.578 62.0923C145.104 62.0923 144.687 61.9846 144.327 61.7692C143.967 61.5537 143.685 61.2475 143.482 60.8505C143.282 60.4535 143.18 59.978 143.177 59.424V54.9091H145.144V59.0732C145.147 59.4917 145.259 59.8226 145.481 60.0657C145.703 60.3088 146 60.4304 146.372 60.4304C146.609 60.4304 146.831 60.3765 147.037 60.2688C147.243 60.158 147.409 59.9949 147.535 59.7795C147.665 59.564 147.728 59.2978 147.725 58.9808ZM151.264 62V54.9091H153.139V56.1602H153.222C153.369 55.7447 153.616 55.4169 153.96 55.1768C154.305 54.9368 154.717 54.8168 155.198 54.8168C155.684 54.8168 156.098 54.9383 156.439 55.1815C156.781 55.4215 157.009 55.7478 157.123 56.1602H157.196C157.341 55.7539 157.603 55.4292 157.981 55.1861C158.363 54.9399 158.814 54.8168 159.334 54.8168C159.996 54.8168 160.533 55.0276 160.945 55.4492C161.361 55.8678 161.568 56.4618 161.568 57.2312V62H159.606V57.619C159.606 57.225 159.502 56.9296 159.292 56.7326C159.083 56.5356 158.821 56.4371 158.508 56.4371C158.151 56.4371 157.872 56.551 157.672 56.7788C157.472 57.0034 157.372 57.3004 157.372 57.6697V62H155.465V57.5774C155.465 57.2296 155.365 56.9527 155.165 56.7464C154.968 56.5402 154.708 56.4371 154.385 56.4371C154.167 56.4371 153.97 56.4925 153.794 56.6033C153.622 56.7111 153.485 56.8634 153.383 57.0604C153.282 57.2543 153.231 57.482 153.231 57.7436V62H151.264ZM163.122 62V54.9091H165.088V62H163.122ZM164.11 53.995C163.817 53.995 163.566 53.8981 163.357 53.7042C163.151 53.5072 163.048 53.2718 163.048 52.9979C163.048 52.727 163.151 52.4947 163.357 52.3008C163.566 52.1038 163.817 52.0053 164.11 52.0053C164.402 52.0053 164.651 52.1038 164.858 52.3008C165.067 52.4947 165.171 52.727 165.171 52.9979C165.171 53.2718 165.067 53.5072 164.858 53.7042C164.651 53.8981 164.402 53.995 164.11 53.995ZM168.63 57.9006V62H166.664V54.9091H168.538V56.1602H168.621C168.778 55.7478 169.041 55.4215 169.411 55.1815C169.78 54.9383 170.228 54.8168 170.754 54.8168C171.246 54.8168 171.676 54.9245 172.042 55.1399C172.408 55.3554 172.693 55.6631 172.896 56.0632C173.099 56.4602 173.201 56.9342 173.201 57.4851V62H171.234V57.8359C171.237 57.402 171.126 57.0634 170.902 56.8203C170.677 56.5741 170.368 56.451 169.974 56.451C169.709 56.451 169.475 56.5079 169.272 56.6218C169.072 56.7357 168.915 56.9019 168.801 57.1204C168.69 57.3358 168.633 57.5959 168.63 57.9006ZM176.773 62.1339C176.32 62.1339 175.917 62.0554 175.563 61.8984C175.209 61.7384 174.929 61.503 174.723 61.1921C174.52 60.8782 174.418 60.4873 174.418 60.0195C174.418 59.6256 174.491 59.2947 174.635 59.027C174.78 58.7592 174.977 58.5438 175.226 58.3807C175.475 58.2176 175.759 58.0945 176.076 58.0114C176.396 57.9283 176.731 57.8698 177.082 57.8359C177.494 57.7929 177.827 57.7528 178.079 57.7159C178.331 57.6759 178.515 57.6174 178.628 57.5405C178.742 57.4635 178.799 57.3497 178.799 57.1989V57.1712C178.799 56.8788 178.707 56.6526 178.522 56.4925C178.341 56.3325 178.082 56.2525 177.747 56.2525C177.393 56.2525 177.111 56.331 176.902 56.4879C176.693 56.6418 176.554 56.8357 176.486 57.0696L174.668 56.9219C174.76 56.491 174.941 56.1186 175.212 55.8047C175.483 55.4877 175.832 55.2446 176.26 55.0753C176.691 54.9029 177.19 54.8168 177.756 54.8168C178.15 54.8168 178.527 54.8629 178.887 54.9553C179.25 55.0476 179.572 55.1907 179.852 55.3846C180.135 55.5785 180.358 55.8278 180.521 56.1325C180.684 56.4341 180.766 56.7957 180.766 57.2173V62H178.901V61.0167H178.845C178.732 61.2383 178.579 61.4337 178.388 61.603C178.198 61.7692 177.968 61.9 177.701 61.9954C177.433 62.0877 177.123 62.1339 176.773 62.1339ZM177.336 60.7766C177.625 60.7766 177.881 60.7197 178.102 60.6058C178.324 60.4889 178.498 60.3319 178.624 60.1349C178.75 59.938 178.813 59.7148 178.813 59.4656V58.7131C178.752 58.7531 178.667 58.79 178.559 58.8239C178.455 58.8546 178.336 58.8839 178.204 58.9116C178.071 58.9362 177.939 58.9593 177.807 58.9808C177.674 58.9993 177.554 59.0162 177.447 59.0316C177.216 59.0655 177.014 59.1193 176.842 59.1932C176.67 59.267 176.536 59.3671 176.44 59.4933C176.345 59.6164 176.297 59.7702 176.297 59.9549C176.297 60.2227 176.394 60.4273 176.588 60.5689C176.785 60.7074 177.034 60.7766 177.336 60.7766ZM186.063 54.9091V56.3864H181.793V54.9091H186.063ZM182.763 53.2102H184.729V59.821C184.729 60.0026 184.757 60.1442 184.812 60.2457C184.868 60.3442 184.945 60.4135 185.043 60.4535C185.145 60.4935 185.262 60.5135 185.394 60.5135C185.486 60.5135 185.579 60.5058 185.671 60.4904C185.763 60.4719 185.834 60.4581 185.883 60.4489L186.193 61.9123C186.094 61.9431 185.956 61.9785 185.777 62.0185C185.599 62.0616 185.382 62.0877 185.126 62.0969C184.652 62.1154 184.237 62.0523 183.88 61.9077C183.526 61.763 183.25 61.5384 183.053 61.2337C182.856 60.929 182.759 60.5443 182.763 60.0795V53.2102ZM190.5 62.1385C189.77 62.1385 189.142 61.9908 188.616 61.6953C188.093 61.3968 187.69 60.9751 187.407 60.4304C187.124 59.8826 186.982 59.2347 186.982 58.4869C186.982 57.7575 187.124 57.1173 187.407 56.5664C187.69 56.0155 188.088 55.5862 188.602 55.2784C189.119 54.9706 189.726 54.8168 190.421 54.8168C190.889 54.8168 191.325 54.8922 191.728 55.043C192.134 55.1907 192.488 55.4138 192.79 55.7124C193.094 56.0109 193.331 56.3864 193.5 56.8388C193.67 57.2881 193.754 57.8144 193.754 58.4176V58.9577H187.767V57.739H191.903C191.903 57.4558 191.842 57.205 191.718 56.9865C191.595 56.768 191.425 56.5972 191.206 56.4741C190.991 56.3479 190.74 56.2848 190.454 56.2848C190.155 56.2848 189.89 56.354 189.66 56.4925C189.432 56.628 189.253 56.8111 189.124 57.0419C188.995 57.2696 188.929 57.5236 188.926 57.8036V58.9624C188.926 59.3132 188.99 59.6164 189.119 59.8718C189.252 60.1272 189.438 60.3242 189.678 60.4627C189.918 60.6012 190.203 60.6705 190.532 60.6705C190.751 60.6705 190.951 60.6397 191.132 60.5781C191.314 60.5166 191.469 60.4242 191.598 60.3011C191.728 60.178 191.826 60.0272 191.894 59.8487L193.713 59.9688C193.62 60.4058 193.431 60.7874 193.145 61.1136C192.862 61.4368 192.496 61.6892 192.046 61.8707C191.6 62.0492 191.084 62.1385 190.5 62.1385ZM196.187 62.12C195.883 62.12 195.621 62.0123 195.402 61.7969C195.187 61.5784 195.079 61.3168 195.079 61.0121C195.079 60.7105 195.187 60.4519 195.402 60.2365C195.621 60.0211 195.883 59.9134 196.187 59.9134C196.483 59.9134 196.741 60.0211 196.963 60.2365C197.184 60.4519 197.295 60.7105 197.295 61.0121C197.295 61.2152 197.243 61.4014 197.138 61.5707C197.037 61.7369 196.903 61.8707 196.737 61.9723C196.57 62.0708 196.387 62.12 196.187 62.12ZM201.151 54.1935V52.5455H208.916V54.1935H206.021V62H204.046V54.1935H201.151ZM209.422 62V54.9091H211.328V56.1463H211.402C211.531 55.7062 211.748 55.3738 212.053 55.1491C212.358 54.9214 212.708 54.8075 213.105 54.8075C213.204 54.8075 213.31 54.8137 213.424 54.826C213.538 54.8383 213.638 54.8552 213.724 54.8768V56.6218C213.632 56.5941 213.504 56.5695 213.341 56.5479C213.178 56.5264 213.029 56.5156 212.893 56.5156C212.604 56.5156 212.345 56.5787 212.118 56.7049C211.893 56.828 211.714 57.0004 211.582 57.2219C211.453 57.4435 211.388 57.699 211.388 57.9883V62H209.422ZM216.56 62.1339C216.107 62.1339 215.704 62.0554 215.35 61.8984C214.996 61.7384 214.716 61.503 214.51 61.1921C214.307 60.8782 214.205 60.4873 214.205 60.0195C214.205 59.6256 214.278 59.2947 214.422 59.027C214.567 58.7592 214.764 58.5438 215.013 58.3807C215.263 58.2176 215.546 58.0945 215.863 58.0114C216.183 57.9283 216.518 57.8698 216.869 57.8359C217.281 57.7929 217.614 57.7528 217.866 57.7159C218.119 57.6759 218.302 57.6174 218.416 57.5405C218.529 57.4635 218.586 57.3497 218.586 57.1989V57.1712C218.586 56.8788 218.494 56.6526 218.309 56.4925C218.128 56.3325 217.869 56.2525 217.534 56.2525C217.18 56.2525 216.898 56.331 216.689 56.4879C216.48 56.6418 216.341 56.8357 216.274 57.0696L214.455 56.9219C214.547 56.491 214.729 56.1186 214.999 55.8047C215.27 55.4877 215.62 55.2446 216.047 55.0753C216.478 54.9029 216.977 54.8168 217.543 54.8168C217.937 54.8168 218.314 54.8629 218.674 54.9553C219.037 55.0476 219.359 55.1907 219.639 55.3846C219.922 55.5785 220.145 55.8278 220.308 56.1325C220.471 56.4341 220.553 56.7957 220.553 57.2173V62H218.688V61.0167H218.633C218.519 61.2383 218.366 61.4337 218.176 61.603C217.985 61.7692 217.755 61.9 217.488 61.9954C217.22 62.0877 216.911 62.1339 216.56 62.1339ZM217.123 60.7766C217.412 60.7766 217.668 60.7197 217.889 60.6058C218.111 60.4889 218.285 60.3319 218.411 60.1349C218.537 59.938 218.6 59.7148 218.6 59.4656V58.7131C218.539 58.7531 218.454 58.79 218.346 58.8239C218.242 58.8546 218.123 58.8839 217.991 58.9116C217.859 58.9362 217.726 58.9593 217.594 58.9808C217.461 58.9993 217.341 59.0162 217.234 59.0316C217.003 59.0655 216.801 59.1193 216.629 59.1932C216.457 59.267 216.323 59.3671 216.227 59.4933C216.132 59.6164 216.084 59.7702 216.084 59.9549C216.084 60.2227 216.181 60.4273 216.375 60.5689C216.572 60.7074 216.821 60.7766 217.123 60.7766ZM224.045 57.9006V62H222.079V54.9091H223.953V56.1602H224.036C224.193 55.7478 224.456 55.4215 224.826 55.1815C225.195 54.9383 225.643 54.8168 226.169 54.8168C226.661 54.8168 227.091 54.9245 227.457 55.1399C227.823 55.3554 228.108 55.6631 228.311 56.0632C228.514 56.4602 228.616 56.9342 228.616 57.4851V62H226.649V57.8359C226.652 57.402 226.541 57.0634 226.317 56.8203C226.092 56.5741 225.783 56.451 225.389 56.451C225.124 56.451 224.89 56.5079 224.687 56.6218C224.487 56.7357 224.33 56.9019 224.216 57.1204C224.105 57.3358 224.048 57.5959 224.045 57.9006ZM236.066 56.9311L234.265 57.0419C234.234 56.888 234.168 56.7495 234.067 56.6264C233.965 56.5002 233.831 56.4002 233.665 56.3263C233.502 56.2494 233.306 56.2109 233.079 56.2109C232.774 56.2109 232.517 56.2756 232.308 56.4048C232.098 56.531 231.994 56.7003 231.994 56.9126C231.994 57.0819 232.061 57.225 232.197 57.342C232.332 57.4589 232.565 57.5528 232.894 57.6236L234.177 57.8821C234.867 58.0237 235.381 58.2514 235.719 58.5653C236.058 58.8793 236.227 59.2917 236.227 59.8026C236.227 60.2673 236.09 60.6751 235.816 61.0259C235.545 61.3768 235.173 61.6507 234.699 61.8477C234.228 62.0415 233.685 62.1385 233.069 62.1385C232.131 62.1385 231.383 61.9431 230.826 61.5522C230.272 61.1583 229.947 60.6228 229.852 59.9457L231.786 59.8441C231.845 60.1303 231.986 60.3488 232.211 60.4996C232.435 60.6474 232.723 60.7212 233.074 60.7212C233.419 60.7212 233.696 60.6551 233.905 60.5227C234.117 60.3873 234.225 60.2134 234.228 60.0011C234.225 59.8226 234.15 59.6764 234.002 59.5625C233.854 59.4455 233.626 59.3563 233.319 59.2947L232.091 59.0501C231.398 58.9116 230.883 58.6715 230.544 58.3299C230.209 57.9883 230.041 57.5528 230.041 57.0234C230.041 56.5679 230.164 56.1755 230.41 55.8462C230.66 55.5169 231.009 55.263 231.458 55.0845C231.911 54.906 232.44 54.8168 233.046 54.8168C233.942 54.8168 234.647 55.006 235.161 55.3846C235.678 55.7631 235.979 56.2786 236.066 56.9311ZM241.279 54.9091V56.3864H236.902V54.9091H241.279ZM237.904 62V54.3967C237.904 53.8827 238.004 53.4564 238.204 53.1179C238.407 52.7794 238.684 52.5254 239.035 52.3562C239.386 52.1869 239.784 52.1023 240.231 52.1023C240.532 52.1023 240.808 52.1254 241.057 52.1715C241.309 52.2177 241.497 52.2592 241.62 52.2962L241.269 53.7734C241.193 53.7488 241.097 53.7257 240.983 53.7042C240.872 53.6826 240.759 53.6719 240.642 53.6719C240.352 53.6719 240.151 53.7396 240.037 53.875C239.923 54.0073 239.866 54.1935 239.866 54.4336V62H237.904ZM245.43 62.1385C244.713 62.1385 244.093 61.9862 243.57 61.6815C243.049 61.3737 242.648 60.9459 242.365 60.3981C242.082 59.8472 241.94 59.2086 241.94 58.4822C241.94 57.7498 242.082 57.1096 242.365 56.5618C242.648 56.0109 243.049 55.5831 243.57 55.2784C244.093 54.9706 244.713 54.8168 245.43 54.8168C246.147 54.8168 246.766 54.9706 247.286 55.2784C247.809 55.5831 248.212 56.0109 248.495 56.5618C248.779 57.1096 248.92 57.7498 248.92 58.4822C248.92 59.2086 248.779 59.8472 248.495 60.3981C248.212 60.9459 247.809 61.3737 247.286 61.6815C246.766 61.9862 246.147 62.1385 245.43 62.1385ZM245.439 60.6151C245.766 60.6151 246.038 60.5227 246.256 60.3381C246.475 60.1503 246.64 59.8949 246.75 59.5717C246.864 59.2486 246.921 58.8808 246.921 58.4684C246.921 58.056 246.864 57.6882 246.75 57.3651C246.64 57.0419 246.475 56.7865 246.256 56.5987C246.038 56.411 245.766 56.3171 245.439 56.3171C245.11 56.3171 244.833 56.411 244.608 56.5987C244.387 56.7865 244.219 57.0419 244.105 57.3651C243.994 57.6882 243.939 58.056 243.939 58.4684C243.939 58.8808 243.994 59.2486 244.105 59.5717C244.219 59.8949 244.387 60.1503 244.608 60.3381C244.833 60.5227 245.11 60.6151 245.439 60.6151ZM250.199 62V54.9091H252.105V56.1463H252.179C252.309 55.7062 252.526 55.3738 252.83 55.1491C253.135 54.9214 253.486 54.8075 253.883 54.8075C253.981 54.8075 254.087 54.8137 254.201 54.826C254.315 54.8383 254.415 54.8552 254.501 54.8768V56.6218C254.409 56.5941 254.281 56.5695 254.118 56.5479C253.955 56.5264 253.806 56.5156 253.67 56.5156C253.381 56.5156 253.123 56.5787 252.895 56.7049C252.67 56.828 252.492 57.0004 252.359 57.2219C252.23 57.4435 252.165 57.699 252.165 57.9883V62H250.199ZM255.518 62V54.9091H257.392V56.1602H257.476C257.623 55.7447 257.87 55.4169 258.214 55.1768C258.559 54.9368 258.971 54.8168 259.451 54.8168C259.938 54.8168 260.352 54.9383 260.693 55.1815C261.035 55.4215 261.263 55.7478 261.377 56.1602H261.45C261.595 55.7539 261.857 55.4292 262.235 55.1861C262.617 54.9399 263.068 54.8168 263.588 54.8168C264.249 54.8168 264.787 55.0276 265.199 55.4492C265.614 55.8678 265.822 56.4618 265.822 57.2312V62H263.86V57.619C263.86 57.225 263.756 56.9296 263.546 56.7326C263.337 56.5356 263.075 56.4371 262.761 56.4371C262.404 56.4371 262.126 56.551 261.926 56.7788C261.726 57.0034 261.626 57.3004 261.626 57.6697V62H259.719V57.5774C259.719 57.2296 259.619 56.9527 259.419 56.7464C259.222 56.5402 258.962 56.4371 258.639 56.4371C258.42 56.4371 258.223 56.4925 258.048 56.6033C257.876 56.7111 257.739 56.8634 257.637 57.0604C257.536 57.2543 257.485 57.482 257.485 57.7436V62H255.518Z" fill="white"/>
<path d="M107.788 14.5H108.333M102.333 9.5V9M102.333 20V19.5M106.697 18.5L106.152 18M106.697 10.5L106.152 11M97.9697 18.5L98.5152 18M97.9697 10.5L98.5152 11M96.3333 14.5H96.8788M102.333 17.5C103.201 17.5 104.034 17.1839 104.648 16.6213C105.261 16.0587 105.606 15.2956 105.606 14.5C105.606 13.7044 105.261 12.9413 104.648 12.3787C104.034 11.8161 103.201 11.5 102.333 11.5C101.465 11.5 100.633 11.8161 100.019 12.3787C99.4054 12.9413 99.0606 13.7044 99.0606 14.5C99.0606 15.2956 99.4054 16.0587 100.019 16.6213C100.633 17.1839 101.465 17.5 102.333 17.5Z" stroke="white" stroke-width="1.5" stroke-linecap="round" stroke-linejoin="round"/>
<rect x="99" y="22" width="6" height="16" fill="white"/>
<path d="M29.3472 5.31081C21.2814 28.7199 22.0604 47.9857 30.3212 69L5.08785 36.5278L29.3472 5.31081Z" fill="white"/>
<path d="M47.5121 18.3263C34.2064 33.669 30.3754 43.2951 28.6272 61.8987C26.1596 49.4938 25.2545 42.0752 27.135 26.4395L47.5121 18.3263Z" fill="white"/>
<path d="M61.582 33.3479C43.6379 47.2389 30.327 62.7708 30.738 65.6655C30.1841 59.2865 35.3099 37.2137 40.3875 33.3479L61.582 33.3479Z" fill="white"/>
</svg>
