<svg width="60" height="60" viewBox="0 0 60 60" fill="none" xmlns="http://www.w3.org/2000/svg">
<rect width="60" height="60" rx="30" fill="black"/>
<rect x="36.0145" y="21.7597" width="5.7308" height="16.4761" fill="white"/>
<path d="M45.0738 13.7605H45.725M38.5615 7.79088V7.19392M38.5615 20.327V19.73M43.7713 18.5361L43.1201 17.9392M43.7713 8.98479L43.1201 9.58175M33.3517 18.5361L34.0029 17.9392M33.3517 8.98479L34.0029 9.58175M31.398 13.7605H32.0492M38.5615 17.3422C39.5978 17.3422 40.5916 16.9649 41.3244 16.2931C42.0572 15.6214 42.4688 14.7104 42.4688 13.7605C42.4688 12.8105 42.0572 11.8995 41.3244 11.2278C40.5916 10.5561 39.5978 10.1787 38.5615 10.1787C37.5252 10.1787 36.5313 10.5561 35.7986 11.2278C35.0658 11.8995 34.6541 12.8105 34.6541 13.7605C34.6541 14.7104 35.0658 15.6214 35.7986 16.2931C36.5313 16.9649 37.5252 17.3422 38.5615 17.3422Z" stroke="white" stroke-width="1.5" stroke-linecap="round" stroke-linejoin="round"/>
<path d="M23.7295 13.989C17.1299 30.2596 17.5701 43.5674 23.9171 58L4.23896 35.8375L23.7295 13.989Z" fill="white"/>
<path d="M34.2742 30.5674C25.5973 38.638 23.3278 43.9437 22.9162 54.5008C20.6373 47.2665 19.6755 42.9707 20.3104 34.1198L34.2742 30.5674Z" fill="white"/>
<path d="M44.4345 38.8468C32.6679 46.4039 23.9112 54.8094 24.1634 56.3569C23.8369 52.9443 27.2957 41.0899 30.6249 38.9862L44.4345 38.8468Z" fill="white"/>
</svg>
